<svg xmlns="http://www.w3.org/2000/svg" viewBox="0 0 512 512" role="img" aria-label="آیکن آزمایشگاه فعل">
  <rect width="512" height="512" fill="#303a8c"/>
  <circle cx="76" cy="68" r="116" fill="#4653bd" opacity=".72"/>
  <circle cx="468" cy="448" r="150" fill="#242c70" opacity=".74"/>
  <rect x="80" y="76" width="352" height="18" rx="9" fill="#efae2e"/>
  <g>
    <rect x="68" y="166" width="112" height="144" rx="28" fill="#ffffff" opacity=".12"/>
    <rect x="200" y="134" width="112" height="176" rx="28" fill="#ffffff" opacity=".18"/>
    <rect x="332" y="102" width="112" height="208" rx="28" fill="#ffffff" opacity=".24"/>
    <g fill="#ffffff">
      <polygon points="92,212 109,212 132,260 124,279"/><polygon points="139,212 156,212 124,279 116,260"/>
      <polygon points="224,192 241,192 264,240 256,259"/><polygon points="271,192 288,192 256,259 248,240"/>
      <polygon points="356,172 373,172 396,220 388,239"/><polygon points="403,172 420,172 388,239 380,220"/>
    </g>
    <g fill="#f8d981">
      <circle cx="155" cy="190" r="7"/>
      <circle cx="281" cy="170" r="7"/><circle cx="299" cy="170" r="7"/>
      <circle cx="407" cy="150" r="7"/><circle cx="425" cy="150" r="7"/><circle cx="443" cy="150" r="7"/>
    </g>
    <g fill="none" stroke="#f8d981" stroke-width="12" stroke-linecap="round">
      <path d="M144 374h224"/>
      <path d="M184 410h144" opacity=".7"/>
    </g>
  </g>
</svg>
